<svg width="512" height="512" viewBox="0 0 512 512" fill="none" xmlns="http://www.w3.org/2000/svg">
<circle cx="256" cy="256" r="256" fill="url(#paint0_linear_80_5)"/>
<path d="M164.325 327.291C157.46 327.291 151.571 324.894 146.658 320.1C141.805 315.247 139.408 309.358 139.467 302.433C139.408 295.686 141.805 289.915 146.658 285.121C151.571 280.327 157.46 277.93 164.325 277.93C170.836 277.93 176.577 280.327 181.548 285.121C186.579 289.915 189.124 295.686 189.183 302.433C189.124 307.05 187.911 311.252 185.543 315.04C183.235 318.768 180.217 321.757 176.488 324.006C172.759 326.196 168.705 327.291 164.325 327.291ZM164.325 239.933C157.46 239.933 151.571 237.536 146.658 232.742C141.805 227.889 139.408 222 139.467 215.075C139.408 208.328 141.805 202.558 146.658 197.763C151.571 192.969 157.46 190.572 164.325 190.572C170.836 190.572 176.577 192.969 181.548 197.763C186.579 202.558 189.124 208.328 189.183 215.075C189.124 219.692 187.911 223.894 185.543 227.682C183.235 231.411 180.217 234.399 176.488 236.648C172.759 238.838 168.705 239.933 164.325 239.933ZM285.064 347H215.106V165.182H284.354C303.056 165.182 319.214 168.822 332.827 176.102C346.498 183.322 357.034 193.739 364.432 207.352C371.889 220.905 375.618 237.152 375.618 256.091C375.618 275.03 371.919 291.306 364.521 304.919C357.122 318.473 346.646 328.889 333.093 336.169C319.539 343.39 303.53 347 285.064 347ZM264.467 305.097H283.288C292.284 305.097 299.949 303.647 306.282 300.746C312.674 297.846 317.527 292.845 320.842 285.743C324.215 278.641 325.902 268.757 325.902 256.091C325.902 243.425 324.186 233.541 320.753 226.439C317.379 219.337 312.408 214.335 305.838 211.435C299.328 208.535 291.338 207.085 281.868 207.085H264.467V305.097Z" fill="white"/>
<defs>
<linearGradient id="paint0_linear_80_5" x1="0" y1="0" x2="512" y2="512" gradientUnits="userSpaceOnUse">
<stop stop-color="#00FFF0"/>
<stop offset="1" stop-color="#1B0B3C"/>
</linearGradient>
</defs>
</svg>
