<svg width="512" height="512" viewBox="0 0 512 512" fill="none" xmlns="http://www.w3.org/2000/svg">
<circle cx="256" cy="256" r="256" fill="url(#paint0_linear_73_12)"/>
<path d="M209.624 347H139.667V165.182H208.914C227.617 165.182 243.774 168.822 257.387 176.102C271.059 183.322 281.594 193.739 288.992 207.352C296.45 220.905 300.178 237.152 300.178 256.091C300.178 275.03 296.479 291.306 289.081 304.919C281.683 318.473 271.207 328.889 257.654 336.169C244.1 343.39 228.09 347 209.624 347ZM189.028 305.097H207.849C216.845 305.097 224.51 303.647 230.842 300.746C237.234 297.846 242.088 292.845 245.402 285.743C248.776 278.641 250.462 268.757 250.462 256.091C250.462 243.425 248.746 233.541 245.313 226.439C241.94 219.337 236.968 214.335 230.399 211.435C223.888 208.535 215.898 207.085 206.428 207.085H189.028V305.097ZM372.377 165.182V347H323.017V165.182H372.377Z" fill="white"/>
<defs>
<linearGradient id="paint0_linear_73_12" x1="0" y1="0" x2="512" y2="512" gradientUnits="userSpaceOnUse">
<stop stop-color="#00FFF0"/>
<stop offset="1" stop-color="#1B0B3C"/>
</linearGradient>
</defs>
</svg>
