<svg width="512" height="512" viewBox="0 0 512 512" fill="none" xmlns="http://www.w3.org/2000/svg">
<path fill-rule="evenodd" clip-rule="evenodd" d="M28.2031 372.929L179.818 221.314C186.066 215.065 196.197 215.065 202.445 221.314L276.632 295.5L304.818 267.314C311.066 261.065 321.197 261.065 327.445 267.314L464.585 404.453C418.171 469.551 342.042 512 256 512C156.742 512 70.6785 455.511 28.2031 372.929ZM408 151C408 179.167 385.166 202 357 202C328.833 202 306 179.167 306 151C306 122.833 328.833 100 357 100C385.166 100 408 122.833 408 151Z" fill="url(#paint0_linear_114_83)"/>
<defs>
<linearGradient id="paint0_linear_114_83" x1="-33.4193" y1="-124.272" x2="595.851" y2="417.867" gradientUnits="userSpaceOnUse">
<stop stop-color="#00FFF0"/>
<stop offset="1" stop-color="#1B0B3C"/>
</linearGradient>
</defs>
</svg>
