<svg width="515" height="512" viewBox="0 0 515 512" fill="none" xmlns="http://www.w3.org/2000/svg">
<path fill-rule="evenodd" clip-rule="evenodd" d="M29.2034 372.929C71.6788 455.511 157.743 512 257 512C343.043 512 419.171 469.551 465.585 404.453L328.446 267.314C322.197 261.065 312.067 261.065 305.818 267.314L277.632 295.5L203.446 221.314C197.197 215.065 187.067 215.065 180.818 221.314L29.2034 372.929ZM409 151C409 179.167 386.166 202 358 202C329.833 202 307 179.167 307 151C307 122.833 329.833 100 358 100C386.166 100 409 122.833 409 151Z" fill="url(#paint0_linear_109_58)"/>
<defs>
<linearGradient id="paint0_linear_109_58" x1="1" y1="0" x2="513" y2="512" gradientUnits="userSpaceOnUse">
<stop stop-color="#00FFF0"/>
<stop offset="1" stop-color="#1B0B3C"/>
</linearGradient>
</defs>
</svg>
